# Blender v2.78 (sub 0) OBJ File: 'nes_beam.blend'
# www.blender.org
mtllib beam2.mtl
o Cone.002_Cone.003
v 0.000000 -4.000000 -0.400000
v 0.000000 0.000000 -0.100000
v 0.153073 -4.000000 -0.369552
v 0.038268 0.000000 -0.092388
v 0.282843 -4.000000 -0.282843
v 0.070711 0.000000 -0.070711
v 0.369552 -4.000000 -0.153073
v 0.092388 0.000000 -0.038268
v 0.400000 -4.000000 0.000000
v 0.100000 0.000000 0.000000
v 0.369552 -4.000000 0.153073
v 0.092388 0.000000 0.038268
v 0.282843 -4.000000 0.282843
v 0.070711 0.000000 0.070711
v 0.153073 -4.000000 0.369552
v 0.038268 0.000000 0.092388
v 0.000000 -4.000000 0.400000
v 0.000000 0.000000 0.100000
v -0.153073 -4.000000 0.369552
v -0.038268 0.000000 0.092388
v -0.282843 -4.000000 0.282843
v -0.070711 0.000000 0.070711
v -0.369552 -4.000000 0.153073
v -0.092388 0.000000 0.038268
v -0.400000 -4.000000 -0.000000
v -0.100000 0.000000 -0.000000
v -0.369552 -4.000000 -0.153073
v -0.092388 0.000000 -0.038268
v -0.282843 -4.000000 -0.282843
v -0.070711 0.000000 -0.070711
v -0.153073 -4.000000 -0.369552
v -0.038268 0.000000 -0.092388
vn 0.1946 0.0734 -0.9781
vn 0.5541 0.0734 -0.8292
vn 0.8292 0.0734 -0.5541
vn 0.9781 0.0734 -0.1946
vn 0.9781 0.0734 0.1946
vn 0.8292 0.0734 0.5541
vn 0.5541 0.0734 0.8292
vn 0.1946 0.0734 0.9781
vn -0.1946 0.0734 0.9781
vn -0.5541 0.0734 0.8292
vn -0.8292 0.0734 0.5541
vn -0.9781 0.0734 0.1946
vn -0.9781 0.0734 -0.1946
vn -0.8292 0.0734 -0.5541
vn 0.0000 1.0000 0.0000
vn -0.5541 0.0734 -0.8292
vn -0.1946 0.0734 -0.9781
vn 0.0000 -1.0000 -0.0000
usemtl None
s off
f 1//1 2//1 4//1 3//1
f 3//2 4//2 6//2 5//2
f 5//3 6//3 8//3 7//3
f 7//4 8//4 10//4 9//4
f 9//5 10//5 12//5 11//5
f 11//6 12//6 14//6 13//6
f 13//7 14//7 16//7 15//7
f 15//8 16//8 18//8 17//8
f 17//9 18//9 20//9 19//9
f 19//10 20//10 22//10 21//10
f 21//11 22//11 24//11 23//11
f 23//12 24//12 26//12 25//12
f 25//13 26//13 28//13 27//13
f 27//14 28//14 30//14 29//14
f 4//15 2//15 32//15 30//15 28//15 26//15 24//15 22//15 20//15 18//15 16//15 14//15 12//15 10//15 8//15 6//15
f 29//16 30//16 32//16 31//16
f 31//17 32//17 2//17 1//17
f 1//18 3//18 5//18 7//18 9//18 11//18 13//18 15//18 17//18 19//18 21//18 23//18 25//18 27//18 29//18 31//18
o Cone.001_Cone.002
v 0.000000 -4.000000 -0.700000
v 0.000000 0.000000 -0.100000
v 0.267878 -4.000000 -0.646716
v 0.038268 0.000000 -0.092388
v 0.494975 -4.000000 -0.494975
v 0.070711 0.000000 -0.070711
v 0.646716 -4.000000 -0.267878
v 0.092388 0.000000 -0.038268
v 0.700000 -4.000000 0.000000
v 0.100000 0.000000 0.000000
v 0.646716 -4.000000 0.267878
v 0.092388 0.000000 0.038268
v 0.494975 -4.000000 0.494975
v 0.070711 0.000000 0.070711
v 0.267878 -4.000000 0.646716
v 0.038268 0.000000 0.092388
v 0.000000 -4.000000 0.700000
v 0.000000 0.000000 0.100000
v -0.267878 -4.000000 0.646716
v -0.038268 0.000000 0.092388
v -0.494975 -4.000000 0.494975
v -0.070711 0.000000 0.070711
v -0.646716 -4.000000 0.267879
v -0.092388 0.000000 0.038268
v -0.700000 -4.000000 -0.000000
v -0.100000 0.000000 -0.000000
v -0.646716 -4.000000 -0.267879
v -0.092388 0.000000 -0.038268
v -0.494975 -4.000000 -0.494975
v -0.070711 0.000000 -0.070711
v -0.267878 -4.000000 -0.646716
v -0.038268 0.000000 -0.092388
vn 0.1930 0.1456 -0.9703
vn 0.5497 0.1456 -0.8226
vn 0.8226 0.1456 -0.5497
vn 0.9703 0.1456 -0.1930
vn 0.9703 0.1456 0.1930
vn 0.8226 0.1456 0.5497
vn 0.5497 0.1456 0.8226
vn 0.1930 0.1456 0.9703
vn -0.1930 0.1456 0.9703
vn -0.5497 0.1456 0.8226
vn -0.8226 0.1456 0.5497
vn -0.9703 0.1456 0.1930
vn -0.9703 0.1456 -0.1930
vn -0.8226 0.1456 -0.5497
vn 0.0000 1.0000 0.0000
vn -0.5497 0.1456 -0.8226
vn -0.1930 0.1456 -0.9703
vn 0.0000 -1.0000 -0.0000
usemtl None
s off
f 33//19 34//19 36//19 35//19
f 35//20 36//20 38//20 37//20
f 37//21 38//21 40//21 39//21
f 39//22 40//22 42//22 41//22
f 41//23 42//23 44//23 43//23
f 43//24 44//24 46//24 45//24
f 45//25 46//25 48//25 47//25
f 47//26 48//26 50//26 49//26
f 49//27 50//27 52//27 51//27
f 51//28 52//28 54//28 53//28
f 53//29 54//29 56//29 55//29
f 55//30 56//30 58//30 57//30
f 57//31 58//31 60//31 59//31
f 59//32 60//32 62//32 61//32
f 36//33 34//33 64//33 62//33 60//33 58//33 56//33 54//33 52//33 50//33 48//33 46//33 44//33 42//33 40//33 38//33
f 61//34 62//34 64//34 63//34
f 63//35 64//35 34//35 33//35
f 33//36 35//36 37//36 39//36 41//36 43//36 45//36 47//36 49//36 51//36 53//36 55//36 57//36 59//36 61//36 63//36
o Cone_Cone.001
v 0.000000 -4.000000 -0.900000
v 0.000000 0.000000 -0.150000
v 0.088215 -4.000000 -0.895666
v 0.014703 0.000000 -0.149278
v 0.175581 -4.000000 -0.882707
v 0.029264 0.000000 -0.147118
v 0.261256 -4.000000 -0.861246
v 0.043543 0.000000 -0.143541
v 0.344415 -4.000000 -0.831492
v 0.057403 0.000000 -0.138582
v 0.424257 -4.000000 -0.793729
v 0.070710 0.000000 -0.132288
v 0.500013 -4.000000 -0.748323
v 0.083336 0.000000 -0.124720
v 0.570954 -4.000000 -0.695709
v 0.095159 0.000000 -0.115952
v 0.636396 -4.000000 -0.636396
v 0.106066 0.000000 -0.106066
v 0.695709 -4.000000 -0.570954
v 0.115952 0.000000 -0.095159
v 0.748323 -4.000000 -0.500013
v 0.124720 0.000000 -0.083336
v 0.793729 -4.000000 -0.424257
v 0.132288 0.000000 -0.070710
v 0.831492 -4.000000 -0.344415
v 0.138582 0.000000 -0.057403
v 0.861246 -4.000000 -0.261256
v 0.143541 0.000000 -0.043543
v 0.882707 -4.000000 -0.175581
v 0.147118 0.000000 -0.029264
v 0.895666 -4.000000 -0.088215
v 0.149278 0.000000 -0.014703
v 0.900000 -4.000000 0.000000
v 0.150000 0.000000 0.000000
v 0.895666 -4.000000 0.088216
v 0.149278 0.000000 0.014703
v 0.882707 -4.000000 0.175581
v 0.147118 0.000000 0.029264
v 0.861246 -4.000000 0.261256
v 0.143541 0.000000 0.043543
v 0.831491 -4.000000 0.344415
v 0.138582 0.000000 0.057403
v 0.793729 -4.000000 0.424257
v 0.132288 0.000000 0.070710
v 0.748322 -4.000000 0.500013
v 0.124720 0.000000 0.083336
v 0.695709 -4.000000 0.570954
v 0.115952 0.000000 0.095159
v 0.636396 -4.000000 0.636396
v 0.106066 0.000000 0.106066
v 0.570954 -4.000000 0.695710
v 0.095159 0.000000 0.115952
v 0.500013 -4.000000 0.748323
v 0.083335 0.000000 0.124720
v 0.424257 -4.000000 0.793729
v 0.070709 0.000000 0.132288
v 0.344415 -4.000000 0.831492
v 0.057402 0.000000 0.138582
v 0.261256 -4.000000 0.861246
v 0.043543 0.000000 0.143541
v 0.175581 -4.000000 0.882707
v 0.029263 0.000000 0.147118
v 0.088215 -4.000000 0.895666
v 0.014702 0.000000 0.149278
v -0.000001 -4.000000 0.900000
v -0.000000 0.000000 0.150000
v -0.088216 -4.000000 0.895666
v -0.014703 0.000000 0.149278
v -0.175582 -4.000000 0.882707
v -0.029264 0.000000 0.147118
v -0.261257 -4.000000 0.861246
v -0.043543 0.000000 0.143541
v -0.344416 -4.000000 0.831491
v -0.057403 0.000000 0.138582
v -0.424258 -4.000000 0.793729
v -0.070710 0.000000 0.132288
v -0.500014 -4.000000 0.748322
v -0.083336 0.000000 0.124720
v -0.570955 -4.000000 0.695709
v -0.095159 0.000000 0.115951
v -0.636397 -4.000000 0.636395
v -0.106066 0.000000 0.106066
v -0.695710 -4.000000 0.570953
v -0.115952 0.000000 0.095159
v -0.748323 -4.000000 0.500013
v -0.124721 0.000000 0.083335
v -0.793729 -4.000000 0.424257
v -0.132288 0.000000 0.070709
v -0.831492 -4.000000 0.344415
v -0.138582 0.000000 0.057402
v -0.861246 -4.000000 0.261256
v -0.143541 0.000000 0.043543
v -0.882707 -4.000000 0.175581
v -0.147118 0.000000 0.029264
v -0.895666 -4.000000 0.088216
v -0.149278 0.000000 0.014703
v -0.900000 -4.000000 0.000000
v -0.150000 0.000000 0.000000
v -0.895666 -4.000000 -0.088215
v -0.149278 0.000000 -0.014702
v -0.882707 -4.000000 -0.175581
v -0.147118 0.000000 -0.029263
v -0.861247 -4.000000 -0.261255
v -0.143541 0.000000 -0.043543
v -0.831492 -4.000000 -0.344414
v -0.138582 0.000000 -0.057402
v -0.793730 -4.000000 -0.424256
v -0.132288 0.000000 -0.070709
v -0.748324 -4.000000 -0.500012
v -0.124721 0.000000 -0.083335
v -0.695710 -4.000000 -0.570953
v -0.115952 0.000000 -0.095159
v -0.636397 -4.000000 -0.636395
v -0.106066 0.000000 -0.106066
v -0.570956 -4.000000 -0.695708
v -0.095159 0.000000 -0.115951
v -0.500015 -4.000000 -0.748321
v -0.083336 0.000000 -0.124720
v -0.424259 -4.000000 -0.793728
v -0.070710 0.000000 -0.132288
v -0.344417 -4.000000 -0.831491
v -0.057403 0.000000 -0.138582
v -0.261259 -4.000000 -0.861246
v -0.043543 0.000000 -0.143541
v -0.175584 -4.000000 -0.882706
v -0.029264 0.000000 -0.147118
v -0.088219 -4.000000 -0.895666
v -0.014703 0.000000 -0.149278
vt 0.0156 0.5000
vt 0.0156 1.0000
vt 0.0000 1.0000
vt 0.0000 0.5000
vt 0.0312 0.5000
vt 0.0312 1.0000
vt 0.0156 1.0000
vt 0.0156 0.5000
vt 0.0469 0.5000
vt 0.0469 1.0000
vt 0.0312 1.0000
vt 0.0312 0.5000
vt 0.0625 0.5000
vt 0.0625 1.0000
vt 0.0469 1.0000
vt 0.0469 0.5000
vt 0.0781 0.5000
vt 0.0781 1.0000
vt 0.0625 1.0000
vt 0.0625 0.5000
vt 0.0938 0.5000
vt 0.0938 1.0000
vt 0.0781 1.0000
vt 0.0781 0.5000
vt 0.1094 0.5000
vt 0.1094 1.0000
vt 0.0938 1.0000
vt 0.0938 0.5000
vt 0.1250 0.5000
vt 0.1250 1.0000
vt 0.1094 1.0000
vt 0.1094 0.5000
vt 0.1406 0.5000
vt 0.1406 1.0000
vt 0.1250 1.0000
vt 0.1250 0.5000
vt 0.1562 0.5000
vt 0.1562 1.0000
vt 0.1406 1.0000
vt 0.1406 0.5000
vt 0.1719 0.5000
vt 0.1719 1.0000
vt 0.1562 1.0000
vt 0.1562 0.5000
vt 0.1875 0.5000
vt 0.1875 1.0000
vt 0.1719 1.0000
vt 0.1719 0.5000
vt 0.2031 0.5000
vt 0.2031 1.0000
vt 0.1875 1.0000
vt 0.1875 0.5000
vt 0.2188 0.5000
vt 0.2188 1.0000
vt 0.2031 1.0000
vt 0.2031 0.5000
vt 0.2344 0.5000
vt 0.2344 1.0000
vt 0.2188 1.0000
vt 0.2188 0.5000
vt 0.2500 0.5000
vt 0.2500 1.0000
vt 0.2344 1.0000
vt 0.2344 0.5000
vt 0.2656 0.5000
vt 0.2656 1.0000
vt 0.2500 1.0000
vt 0.2500 0.5000
vt 0.2812 0.5000
vt 0.2812 1.0000
vt 0.2656 1.0000
vt 0.2656 0.5000
vt 0.2969 0.5000
vt 0.2969 1.0000
vt 0.2812 1.0000
vt 0.2812 0.5000
vt 0.3125 0.5000
vt 0.3125 1.0000
vt 0.2969 1.0000
vt 0.2969 0.5000
vt 0.3281 0.5000
vt 0.3281 1.0000
vt 0.3125 1.0000
vt 0.3125 0.5000
vt 0.3438 0.5000
vt 0.3438 1.0000
vt 0.3281 1.0000
vt 0.3281 0.5000
vt 0.3594 0.5000
vt 0.3594 1.0000
vt 0.3438 1.0000
vt 0.3438 0.5000
vt 0.3750 0.5000
vt 0.3750 1.0000
vt 0.3594 1.0000
vt 0.3594 0.5000
vt 0.3906 0.5000
vt 0.3906 1.0000
vt 0.3750 1.0000
vt 0.3750 0.5000
vt 0.4062 0.5000
vt 0.4062 1.0000
vt 0.3906 1.0000
vt 0.3906 0.5000
vt 0.4219 0.5000
vt 0.4219 1.0000
vt 0.4062 1.0000
vt 0.4062 0.5000
vt 0.4375 0.5000
vt 0.4375 1.0000
vt 0.4219 1.0000
vt 0.4219 0.5000
vt 0.4531 0.5000
vt 0.4531 1.0000
vt 0.4375 1.0000
vt 0.4375 0.5000
vt 0.4688 0.5000
vt 0.4688 1.0000
vt 0.4531 1.0000
vt 0.4531 0.5000
vt 0.4844 0.5000
vt 0.4844 1.0000
vt 0.4688 1.0000
vt 0.4688 0.5000
vt 0.5000 0.5000
vt 0.5000 1.0000
vt 0.4844 1.0000
vt 0.4844 0.5000
vt 0.5156 0.5000
vt 0.5156 1.0000
vt 0.5000 1.0000
vt 0.5000 0.5000
vt 0.5312 0.5000
vt 0.5312 1.0000
vt 0.5156 1.0000
vt 0.5156 0.5000
vt 0.5469 0.5000
vt 0.5469 1.0000
vt 0.5312 1.0000
vt 0.5312 0.5000
vt 0.5625 0.5000
vt 0.5625 1.0000
vt 0.5469 1.0000
vt 0.5469 0.5000
vt 0.5781 0.5000
vt 0.5781 1.0000
vt 0.5625 1.0000
vt 0.5625 0.5000
vt 0.5938 0.5000
vt 0.5938 1.0000
vt 0.5781 1.0000
vt 0.5781 0.5000
vt 0.6094 0.5000
vt 0.6094 1.0000
vt 0.5938 1.0000
vt 0.5938 0.5000
vt 0.6250 0.5000
vt 0.6250 1.0000
vt 0.6094 1.0000
vt 0.6094 0.5000
vt 0.6406 0.5000
vt 0.6406 1.0000
vt 0.6250 1.0000
vt 0.6250 0.5000
vt 0.6562 0.5000
vt 0.6562 1.0000
vt 0.6406 1.0000
vt 0.6406 0.5000
vt 0.6719 0.5000
vt 0.6719 1.0000
vt 0.6562 1.0000
vt 0.6562 0.5000
vt 0.6875 0.5000
vt 0.6875 1.0000
vt 0.6719 1.0000
vt 0.6719 0.5000
vt 0.7031 0.5000
vt 0.7031 1.0000
vt 0.6875 1.0000
vt 0.6875 0.5000
vt 0.7188 0.5000
vt 0.7188 1.0000
vt 0.7031 1.0000
vt 0.7031 0.5000
vt 0.7344 0.5000
vt 0.7344 1.0000
vt 0.7188 1.0000
vt 0.7188 0.5000
vt 0.7500 0.5000
vt 0.7500 1.0000
vt 0.7344 1.0000
vt 0.7344 0.5000
vt 0.7656 0.5000
vt 0.7656 1.0000
vt 0.7500 1.0000
vt 0.7500 0.5000
vt 0.7812 0.5000
vt 0.7812 1.0000
vt 0.7656 1.0000
vt 0.7656 0.5000
vt 0.7969 0.5000
vt 0.7969 1.0000
vt 0.7812 1.0000
vt 0.7812 0.5000
vt 0.8125 0.5000
vt 0.8125 1.0000
vt 0.7969 1.0000
vt 0.7969 0.5000
vt 0.8281 0.5000
vt 0.8281 1.0000
vt 0.8125 1.0000
vt 0.8125 0.5000
vt 0.8438 0.5000
vt 0.8438 1.0000
vt 0.8281 1.0000
vt 0.8281 0.5000
vt 0.8594 0.5000
vt 0.8594 1.0000
vt 0.8438 1.0000
vt 0.8438 0.5000
vt 0.8750 0.5000
vt 0.8750 1.0000
vt 0.8594 1.0000
vt 0.8594 0.5000
vt 0.8906 0.5000
vt 0.8906 1.0000
vt 0.8750 1.0000
vt 0.8750 0.5000
vt 0.9062 0.5000
vt 0.9062 1.0000
vt 0.8906 1.0000
vt 0.8906 0.5000
vt 0.9219 0.5000
vt 0.9219 1.0000
vt 0.9062 1.0000
vt 0.9062 0.5000
vt 0.9375 0.5000
vt 0.9375 1.0000
vt 0.9219 1.0000
vt 0.9219 0.5000
vt 0.9531 0.5000
vt 0.9531 1.0000
vt 0.9375 1.0000
vt 0.9375 0.5000
vt 0.9688 0.5000
vt 0.9688 1.0000
vt 0.9531 1.0000
vt 0.9531 0.5000
vt 0.2735 0.4888
vt 0.2500 0.4900
vt 0.2265 0.4888
vt 0.2032 0.4854
vt 0.1803 0.4797
vt 0.1582 0.4717
vt 0.1369 0.4617
vt 0.1167 0.4496
vt 0.0977 0.4355
vt 0.0803 0.4197
vt 0.0645 0.4023
vt 0.0504 0.3833
vt 0.0383 0.3631
vt 0.0283 0.3418
vt 0.0203 0.3197
vt 0.0146 0.2968
vt 0.0112 0.2735
vt 0.0100 0.2500
vt 0.0112 0.2265
vt 0.0146 0.2032
vt 0.0203 0.1803
vt 0.0283 0.1582
vt 0.0383 0.1369
vt 0.0504 0.1167
vt 0.0645 0.0977
vt 0.0803 0.0803
vt 0.0977 0.0645
vt 0.1167 0.0504
vt 0.1369 0.0383
vt 0.1582 0.0283
vt 0.1803 0.0203
vt 0.2032 0.0146
vt 0.2265 0.0112
vt 0.2500 0.0100
vt 0.2735 0.0112
vt 0.2968 0.0146
vt 0.3197 0.0203
vt 0.3418 0.0283
vt 0.3631 0.0383
vt 0.3833 0.0504
vt 0.4023 0.0645
vt 0.4197 0.0803
vt 0.4355 0.0977
vt 0.4496 0.1167
vt 0.4617 0.1369
vt 0.4717 0.1582
vt 0.4797 0.1803
vt 0.4854 0.2032
vt 0.4888 0.2265
vt 0.4900 0.2500
vt 0.4888 0.2735
vt 0.4854 0.2968
vt 0.4797 0.3197
vt 0.4717 0.3418
vt 0.4617 0.3631
vt 0.4496 0.3833
vt 0.4355 0.4023
vt 0.4197 0.4197
vt 0.4023 0.4355
vt 0.3833 0.4496
vt 0.3631 0.4617
vt 0.3418 0.4717
vt 0.3197 0.4797
vt 0.2968 0.4854
vt 0.9844 0.5000
vt 0.9844 1.0000
vt 0.9688 1.0000
vt 0.9688 0.5000
vt 1.0000 0.5000
vt 1.0000 1.0000
vt 0.9844 1.0000
vt 0.9844 0.5000
vt 0.7500 0.4900
vt 0.7735 0.4888
vt 0.7968 0.4854
vt 0.8197 0.4797
vt 0.8418 0.4717
vt 0.8631 0.4617
vt 0.8833 0.4496
vt 0.9023 0.4355
vt 0.9197 0.4197
vt 0.9355 0.4023
vt 0.9496 0.3833
vt 0.9617 0.3631
vt 0.9717 0.3418
vt 0.9797 0.3197
vt 0.9854 0.2968
vt 0.9888 0.2735
vt 0.9900 0.2500
vt 0.9888 0.2265
vt 0.9854 0.2032
vt 0.9797 0.1803
vt 0.9717 0.1582
vt 0.9617 0.1369
vt 0.9496 0.1167
vt 0.9355 0.0977
vt 0.9197 0.0803
vt 0.9023 0.0645
vt 0.8833 0.0504
vt 0.8631 0.0383
vt 0.8418 0.0283
vt 0.8197 0.0203
vt 0.7968 0.0146
vt 0.7735 0.0112
vt 0.7500 0.0100
vt 0.7265 0.0112
vt 0.7032 0.0146
vt 0.6803 0.0203
vt 0.6582 0.0283
vt 0.6369 0.0383
vt 0.6167 0.0504
vt 0.5977 0.0645
vt 0.5803 0.0803
vt 0.5645 0.0977
vt 0.5504 0.1167
vt 0.5383 0.1369
vt 0.5283 0.1582
vt 0.5203 0.1803
vt 0.5146 0.2032
vt 0.5112 0.2265
vt 0.5100 0.2500
vt 0.5112 0.2735
vt 0.5146 0.2968
vt 0.5203 0.3197
vt 0.5283 0.3418
vt 0.5383 0.3631
vt 0.5504 0.3833
vt 0.5645 0.4023
vt 0.5803 0.4197
vt 0.5977 0.4355
vt 0.6167 0.4496
vt 0.6369 0.4617
vt 0.6582 0.4717
vt 0.6803 0.4797
vt 0.7032 0.4854
vt 0.7265 0.4888
vn 0.0482 0.1841 -0.9817
vn 0.1442 0.1841 -0.9723
vn 0.2388 0.1841 -0.9535
vn 0.3311 0.1841 -0.9255
vn 0.4202 0.1841 -0.8885
vn 0.5053 0.1841 -0.8431
vn 0.5855 0.1841 -0.7895
vn 0.6601 0.1841 -0.7283
vn 0.7283 0.1841 -0.6601
vn 0.7895 0.1841 -0.5855
vn 0.8431 0.1841 -0.5053
vn 0.8885 0.1841 -0.4202
vn 0.9255 0.1841 -0.3311
vn 0.9535 0.1841 -0.2388
vn 0.9723 0.1841 -0.1442
vn 0.9817 0.1841 -0.0482
vn 0.9817 0.1841 0.0482
vn 0.9723 0.1841 0.1442
vn 0.9535 0.1841 0.2388
vn 0.9255 0.1841 0.3311
vn 0.8885 0.1841 0.4202
vn 0.8431 0.1841 0.5053
vn 0.7895 0.1841 0.5855
vn 0.7283 0.1841 0.6601
vn 0.6601 0.1841 0.7283
vn 0.5855 0.1841 0.7895
vn 0.5053 0.1841 0.8431
vn 0.4202 0.1841 0.8885
vn 0.3311 0.1841 0.9255
vn 0.2388 0.1841 0.9535
vn 0.1442 0.1841 0.9723
vn 0.0482 0.1841 0.9817
vn -0.0482 0.1841 0.9817
vn -0.1442 0.1841 0.9723
vn -0.2388 0.1841 0.9535
vn -0.3311 0.1841 0.9255
vn -0.4203 0.1841 0.8885
vn -0.5053 0.1841 0.8431
vn -0.5855 0.1841 0.7895
vn -0.6601 0.1841 0.7283
vn -0.7283 0.1841 0.6601
vn -0.7895 0.1841 0.5855
vn -0.8431 0.1841 0.5053
vn -0.8885 0.1841 0.4202
vn -0.9255 0.1841 0.3311
vn -0.9535 0.1841 0.2388
vn -0.9723 0.1841 0.1442
vn -0.9817 0.1841 0.0482
vn -0.9817 0.1841 -0.0482
vn -0.9723 0.1841 -0.1442
vn -0.9535 0.1841 -0.2388
vn -0.9255 0.1841 -0.3311
vn -0.8885 0.1841 -0.4202
vn -0.8431 0.1841 -0.5053
vn -0.7895 0.1841 -0.5855
vn -0.7283 0.1841 -0.6601
vn -0.6601 0.1841 -0.7283
vn -0.5855 0.1841 -0.7895
vn -0.5053 0.1841 -0.8431
vn -0.4203 0.1841 -0.8885
vn -0.3311 0.1841 -0.9255
vn -0.2388 0.1841 -0.9535
vn 0.0000 1.0000 0.0000
vn -0.1442 0.1841 -0.9723
vn -0.0482 0.1841 -0.9817
vn 0.0000 -1.0000 -0.0000
usemtl None
s off
f 65/1/37 66/2/37 68/3/37 67/4/37
f 67/5/38 68/6/38 70/7/38 69/8/38
f 69/9/39 70/10/39 72/11/39 71/12/39
f 71/13/40 72/14/40 74/15/40 73/16/40
f 73/17/41 74/18/41 76/19/41 75/20/41
f 75/21/42 76/22/42 78/23/42 77/24/42
f 77/25/43 78/26/43 80/27/43 79/28/43
f 79/29/44 80/30/44 82/31/44 81/32/44
f 81/33/45 82/34/45 84/35/45 83/36/45
f 83/37/46 84/38/46 86/39/46 85/40/46
f 85/41/47 86/42/47 88/43/47 87/44/47
f 87/45/48 88/46/48 90/47/48 89/48/48
f 89/49/49 90/50/49 92/51/49 91/52/49
f 91/53/50 92/54/50 94/55/50 93/56/50
f 93/57/51 94/58/51 96/59/51 95/60/51
f 95/61/52 96/62/52 98/63/52 97/64/52
f 97/65/53 98/66/53 100/67/53 99/68/53
f 99/69/54 100/70/54 102/71/54 101/72/54
f 101/73/55 102/74/55 104/75/55 103/76/55
f 103/77/56 104/78/56 106/79/56 105/80/56
f 105/81/57 106/82/57 108/83/57 107/84/57
f 107/85/58 108/86/58 110/87/58 109/88/58
f 109/89/59 110/90/59 112/91/59 111/92/59
f 111/93/60 112/94/60 114/95/60 113/96/60
f 113/97/61 114/98/61 116/99/61 115/100/61
f 115/101/62 116/102/62 118/103/62 117/104/62
f 117/105/63 118/106/63 120/107/63 119/108/63
f 119/109/64 120/110/64 122/111/64 121/112/64
f 121/113/65 122/114/65 124/115/65 123/116/65
f 123/117/66 124/118/66 126/119/66 125/120/66
f 125/121/67 126/122/67 128/123/67 127/124/67
f 127/125/68 128/126/68 130/127/68 129/128/68
f 129/129/69 130/130/69 132/131/69 131/132/69
f 131/133/70 132/134/70 134/135/70 133/136/70
f 133/137/71 134/138/71 136/139/71 135/140/71
f 135/141/72 136/142/72 138/143/72 137/144/72
f 137/145/73 138/146/73 140/147/73 139/148/73
f 139/149/74 140/150/74 142/151/74 141/152/74
f 141/153/75 142/154/75 144/155/75 143/156/75
f 143/157/76 144/158/76 146/159/76 145/160/76
f 145/161/77 146/162/77 148/163/77 147/164/77
f 147/165/78 148/166/78 150/167/78 149/168/78
f 149/169/79 150/170/79 152/171/79 151/172/79
f 151/173/80 152/174/80 154/175/80 153/176/80
f 153/177/81 154/178/81 156/179/81 155/180/81
f 155/181/82 156/182/82 158/183/82 157/184/82
f 157/185/83 158/186/83 160/187/83 159/188/83
f 159/189/84 160/190/84 162/191/84 161/192/84
f 161/193/85 162/194/85 164/195/85 163/196/85
f 163/197/86 164/198/86 166/199/86 165/200/86
f 165/201/87 166/202/87 168/203/87 167/204/87
f 167/205/88 168/206/88 170/207/88 169/208/88
f 169/209/89 170/210/89 172/211/89 171/212/89
f 171/213/90 172/214/90 174/215/90 173/216/90
f 173/217/91 174/218/91 176/219/91 175/220/91
f 175/221/92 176/222/92 178/223/92 177/224/92
f 177/225/93 178/226/93 180/227/93 179/228/93
f 179/229/94 180/230/94 182/231/94 181/232/94
f 181/233/95 182/234/95 184/235/95 183/236/95
f 183/237/96 184/238/96 186/239/96 185/240/96
f 185/241/97 186/242/97 188/243/97 187/244/97
f 187/245/98 188/246/98 190/247/98 189/248/98
f 68/249/99 66/250/99 192/251/99 190/252/99 188/253/99 186/254/99 184/255/99 182/256/99 180/257/99 178/258/99 176/259/99 174/260/99 172/261/99 170/262/99 168/263/99 166/264/99 164/265/99 162/266/99 160/267/99 158/268/99 156/269/99 154/270/99 152/271/99 150/272/99 148/273/99 146/274/99 144/275/99 142/276/99 140/277/99 138/278/99 136/279/99 134/280/99 132/281/99 130/282/99 128/283/99 126/284/99 124/285/99 122/286/99 120/287/99 118/288/99 116/289/99 114/290/99 112/291/99 110/292/99 108/293/99 106/294/99 104/295/99 102/296/99 100/297/99 98/298/99 96/299/99 94/300/99 92/301/99 90/302/99 88/303/99 86/304/99 84/305/99 82/306/99 80/307/99 78/308/99 76/309/99 74/310/99 72/311/99 70/312/99
f 189/313/100 190/314/100 192/315/100 191/316/100
f 191/317/101 192/318/101 66/319/101 65/320/101
f 65/321/102 67/322/102 69/323/102 71/324/102 73/325/102 75/326/102 77/327/102 79/328/102 81/329/102 83/330/102 85/331/102 87/332/102 89/333/102 91/334/102 93/335/102 95/336/102 97/337/102 99/338/102 101/339/102 103/340/102 105/341/102 107/342/102 109/343/102 111/344/102 113/345/102 115/346/102 117/347/102 119/348/102 121/349/102 123/350/102 125/351/102 127/352/102 129/353/102 131/354/102 133/355/102 135/356/102 137/357/102 139/358/102 141/359/102 143/360/102 145/361/102 147/362/102 149/363/102 151/364/102 153/365/102 155/366/102 157/367/102 159/368/102 161/369/102 163/370/102 165/371/102 167/372/102 169/373/102 171/374/102 173/375/102 175/376/102 177/377/102 179/378/102 181/379/102 183/380/102 185/381/102 187/382/102 189/383/102 191/384/102
