# Blender v2.78 (sub 0) OBJ File: ''
# www.blender.org
mtllib beam.mtl
o Cone_Cone.001
v 0.000000 -4.000000 -0.900000
v 0.000000 0.000000 -0.150000
v 0.088215 -4.000000 -0.895666
v 0.014703 0.000000 -0.149278
v 0.175581 -4.000000 -0.882707
v 0.029264 0.000000 -0.147118
v 0.261256 -4.000000 -0.861246
v 0.043543 0.000000 -0.143541
v 0.344415 -4.000000 -0.831492
v 0.057403 0.000000 -0.138582
v 0.424257 -4.000000 -0.793729
v 0.070710 0.000000 -0.132288
v 0.500013 -4.000000 -0.748323
v 0.083336 0.000000 -0.124720
v 0.570954 -4.000000 -0.695709
v 0.095159 0.000000 -0.115952
v 0.636396 -4.000000 -0.636396
v 0.106066 0.000000 -0.106066
v 0.695709 -4.000000 -0.570954
v 0.115952 0.000000 -0.095159
v 0.748323 -4.000000 -0.500013
v 0.124720 0.000000 -0.083336
v 0.793729 -4.000000 -0.424257
v 0.132288 0.000000 -0.070710
v 0.831492 -4.000000 -0.344415
v 0.138582 0.000000 -0.057403
v 0.861246 -4.000000 -0.261256
v 0.143541 0.000000 -0.043543
v 0.882707 -4.000000 -0.175581
v 0.147118 0.000000 -0.029264
v 0.895666 -4.000000 -0.088215
v 0.149278 0.000000 -0.014703
v 0.900000 -4.000000 0.000000
v 0.150000 0.000000 0.000000
v 0.895666 -4.000000 0.088216
v 0.149278 0.000000 0.014703
v 0.882707 -4.000000 0.175581
v 0.147118 0.000000 0.029264
v 0.861246 -4.000000 0.261256
v 0.143541 0.000000 0.043543
v 0.831491 -4.000000 0.344415
v 0.138582 0.000000 0.057403
v 0.793729 -4.000000 0.424257
v 0.132288 0.000000 0.070710
v 0.748322 -4.000000 0.500013
v 0.124720 0.000000 0.083336
v 0.695709 -4.000000 0.570954
v 0.115952 0.000000 0.095159
v 0.636396 -4.000000 0.636396
v 0.106066 0.000000 0.106066
v 0.570954 -4.000000 0.695710
v 0.095159 0.000000 0.115952
v 0.500013 -4.000000 0.748323
v 0.083335 0.000000 0.124720
v 0.424257 -4.000000 0.793729
v 0.070709 0.000000 0.132288
v 0.344415 -4.000000 0.831492
v 0.057402 0.000000 0.138582
v 0.261256 -4.000000 0.861246
v 0.043543 0.000000 0.143541
v 0.175581 -4.000000 0.882707
v 0.029263 0.000000 0.147118
v 0.088215 -4.000000 0.895666
v 0.014702 0.000000 0.149278
v -0.000001 -4.000000 0.900000
v -0.000000 0.000000 0.150000
v -0.088216 -4.000000 0.895666
v -0.014703 0.000000 0.149278
v -0.175582 -4.000000 0.882707
v -0.029264 0.000000 0.147118
v -0.261257 -4.000000 0.861246
v -0.043543 0.000000 0.143541
v -0.344416 -4.000000 0.831491
v -0.057403 0.000000 0.138582
v -0.424258 -4.000000 0.793729
v -0.070710 0.000000 0.132288
v -0.500014 -4.000000 0.748322
v -0.083336 0.000000 0.124720
v -0.570955 -4.000000 0.695709
v -0.095159 0.000000 0.115951
v -0.636397 -4.000000 0.636395
v -0.106066 0.000000 0.106066
v -0.695710 -4.000000 0.570953
v -0.115952 0.000000 0.095159
v -0.748323 -4.000000 0.500013
v -0.124721 0.000000 0.083335
v -0.793729 -4.000000 0.424257
v -0.132288 0.000000 0.070709
v -0.831492 -4.000000 0.344415
v -0.138582 0.000000 0.057402
v -0.861246 -4.000000 0.261256
v -0.143541 0.000000 0.043543
v -0.882707 -4.000000 0.175581
v -0.147118 0.000000 0.029264
v -0.895666 -4.000000 0.088216
v -0.149278 0.000000 0.014703
v -0.900000 -4.000000 0.000000
v -0.150000 0.000000 0.000000
v -0.895666 -4.000000 -0.088215
v -0.149278 0.000000 -0.014702
v -0.882707 -4.000000 -0.175581
v -0.147118 0.000000 -0.029263
v -0.861247 -4.000000 -0.261255
v -0.143541 0.000000 -0.043543
v -0.831492 -4.000000 -0.344414
v -0.138582 0.000000 -0.057402
v -0.793730 -4.000000 -0.424256
v -0.132288 0.000000 -0.070709
v -0.748324 -4.000000 -0.500012
v -0.124721 0.000000 -0.083335
v -0.695710 -4.000000 -0.570953
v -0.115952 0.000000 -0.095159
v -0.636397 -4.000000 -0.636395
v -0.106066 0.000000 -0.106066
v -0.570956 -4.000000 -0.695708
v -0.095159 0.000000 -0.115951
v -0.500015 -4.000000 -0.748321
v -0.083336 0.000000 -0.124720
v -0.424259 -4.000000 -0.793728
v -0.070710 0.000000 -0.132288
v -0.344417 -4.000000 -0.831491
v -0.057403 0.000000 -0.138582
v -0.261259 -4.000000 -0.861246
v -0.043543 0.000000 -0.143541
v -0.175584 -4.000000 -0.882706
v -0.029264 0.000000 -0.147118
v -0.088219 -4.000000 -0.895666
v -0.014703 0.000000 -0.149278
vt 0.0156 0.5000
vt 0.0156 1.0000
vt 0.0000 1.0000
vt 0.0000 0.5000
vt 0.0312 0.5000
vt 0.0312 1.0000
vt 0.0156 1.0000
vt 0.0156 0.5000
vt 0.0469 0.5000
vt 0.0469 1.0000
vt 0.0312 1.0000
vt 0.0312 0.5000
vt 0.0625 0.5000
vt 0.0625 1.0000
vt 0.0469 1.0000
vt 0.0469 0.5000
vt 0.0781 0.5000
vt 0.0781 1.0000
vt 0.0625 1.0000
vt 0.0625 0.5000
vt 0.0938 0.5000
vt 0.0938 1.0000
vt 0.0781 1.0000
vt 0.0781 0.5000
vt 0.1094 0.5000
vt 0.1094 1.0000
vt 0.0938 1.0000
vt 0.0938 0.5000
vt 0.1250 0.5000
vt 0.1250 1.0000
vt 0.1094 1.0000
vt 0.1094 0.5000
vt 0.1406 0.5000
vt 0.1406 1.0000
vt 0.1250 1.0000
vt 0.1250 0.5000
vt 0.1562 0.5000
vt 0.1562 1.0000
vt 0.1406 1.0000
vt 0.1406 0.5000
vt 0.1719 0.5000
vt 0.1719 1.0000
vt 0.1562 1.0000
vt 0.1562 0.5000
vt 0.1875 0.5000
vt 0.1875 1.0000
vt 0.1719 1.0000
vt 0.1719 0.5000
vt 0.2031 0.5000
vt 0.2031 1.0000
vt 0.1875 1.0000
vt 0.1875 0.5000
vt 0.2188 0.5000
vt 0.2188 1.0000
vt 0.2031 1.0000
vt 0.2031 0.5000
vt 0.2344 0.5000
vt 0.2344 1.0000
vt 0.2188 1.0000
vt 0.2188 0.5000
vt 0.2500 0.5000
vt 0.2500 1.0000
vt 0.2344 1.0000
vt 0.2344 0.5000
vt 0.2656 0.5000
vt 0.2656 1.0000
vt 0.2500 1.0000
vt 0.2500 0.5000
vt 0.2812 0.5000
vt 0.2812 1.0000
vt 0.2656 1.0000
vt 0.2656 0.5000
vt 0.2969 0.5000
vt 0.2969 1.0000
vt 0.2812 1.0000
vt 0.2812 0.5000
vt 0.3125 0.5000
vt 0.3125 1.0000
vt 0.2969 1.0000
vt 0.2969 0.5000
vt 0.3281 0.5000
vt 0.3281 1.0000
vt 0.3125 1.0000
vt 0.3125 0.5000
vt 0.3438 0.5000
vt 0.3438 1.0000
vt 0.3281 1.0000
vt 0.3281 0.5000
vt 0.3594 0.5000
vt 0.3594 1.0000
vt 0.3438 1.0000
vt 0.3438 0.5000
vt 0.3750 0.5000
vt 0.3750 1.0000
vt 0.3594 1.0000
vt 0.3594 0.5000
vt 0.3906 0.5000
vt 0.3906 1.0000
vt 0.3750 1.0000
vt 0.3750 0.5000
vt 0.4062 0.5000
vt 0.4062 1.0000
vt 0.3906 1.0000
vt 0.3906 0.5000
vt 0.4219 0.5000
vt 0.4219 1.0000
vt 0.4062 1.0000
vt 0.4062 0.5000
vt 0.4375 0.5000
vt 0.4375 1.0000
vt 0.4219 1.0000
vt 0.4219 0.5000
vt 0.4531 0.5000
vt 0.4531 1.0000
vt 0.4375 1.0000
vt 0.4375 0.5000
vt 0.4688 0.5000
vt 0.4688 1.0000
vt 0.4531 1.0000
vt 0.4531 0.5000
vt 0.4844 0.5000
vt 0.4844 1.0000
vt 0.4688 1.0000
vt 0.4688 0.5000
vt 0.5000 0.5000
vt 0.5000 1.0000
vt 0.4844 1.0000
vt 0.4844 0.5000
vt 0.5156 0.5000
vt 0.5156 1.0000
vt 0.5000 1.0000
vt 0.5000 0.5000
vt 0.5312 0.5000
vt 0.5312 1.0000
vt 0.5156 1.0000
vt 0.5156 0.5000
vt 0.5469 0.5000
vt 0.5469 1.0000
vt 0.5312 1.0000
vt 0.5312 0.5000
vt 0.5625 0.5000
vt 0.5625 1.0000
vt 0.5469 1.0000
vt 0.5469 0.5000
vt 0.5781 0.5000
vt 0.5781 1.0000
vt 0.5625 1.0000
vt 0.5625 0.5000
vt 0.5938 0.5000
vt 0.5938 1.0000
vt 0.5781 1.0000
vt 0.5781 0.5000
vt 0.6094 0.5000
vt 0.6094 1.0000
vt 0.5938 1.0000
vt 0.5938 0.5000
vt 0.6250 0.5000
vt 0.6250 1.0000
vt 0.6094 1.0000
vt 0.6094 0.5000
vt 0.6406 0.5000
vt 0.6406 1.0000
vt 0.6250 1.0000
vt 0.6250 0.5000
vt 0.6562 0.5000
vt 0.6562 1.0000
vt 0.6406 1.0000
vt 0.6406 0.5000
vt 0.6719 0.5000
vt 0.6719 1.0000
vt 0.6562 1.0000
vt 0.6562 0.5000
vt 0.6875 0.5000
vt 0.6875 1.0000
vt 0.6719 1.0000
vt 0.6719 0.5000
vt 0.7031 0.5000
vt 0.7031 1.0000
vt 0.6875 1.0000
vt 0.6875 0.5000
vt 0.7188 0.5000
vt 0.7188 1.0000
vt 0.7031 1.0000
vt 0.7031 0.5000
vt 0.7344 0.5000
vt 0.7344 1.0000
vt 0.7188 1.0000
vt 0.7188 0.5000
vt 0.7500 0.5000
vt 0.7500 1.0000
vt 0.7344 1.0000
vt 0.7344 0.5000
vt 0.7656 0.5000
vt 0.7656 1.0000
vt 0.7500 1.0000
vt 0.7500 0.5000
vt 0.7812 0.5000
vt 0.7812 1.0000
vt 0.7656 1.0000
vt 0.7656 0.5000
vt 0.7969 0.5000
vt 0.7969 1.0000
vt 0.7812 1.0000
vt 0.7812 0.5000
vt 0.8125 0.5000
vt 0.8125 1.0000
vt 0.7969 1.0000
vt 0.7969 0.5000
vt 0.8281 0.5000
vt 0.8281 1.0000
vt 0.8125 1.0000
vt 0.8125 0.5000
vt 0.8438 0.5000
vt 0.8438 1.0000
vt 0.8281 1.0000
vt 0.8281 0.5000
vt 0.8594 0.5000
vt 0.8594 1.0000
vt 0.8438 1.0000
vt 0.8438 0.5000
vt 0.8750 0.5000
vt 0.8750 1.0000
vt 0.8594 1.0000
vt 0.8594 0.5000
vt 0.8906 0.5000
vt 0.8906 1.0000
vt 0.8750 1.0000
vt 0.8750 0.5000
vt 0.9062 0.5000
vt 0.9062 1.0000
vt 0.8906 1.0000
vt 0.8906 0.5000
vt 0.9219 0.5000
vt 0.9219 1.0000
vt 0.9062 1.0000
vt 0.9062 0.5000
vt 0.9375 0.5000
vt 0.9375 1.0000
vt 0.9219 1.0000
vt 0.9219 0.5000
vt 0.9531 0.5000
vt 0.9531 1.0000
vt 0.9375 1.0000
vt 0.9375 0.5000
vt 0.9688 0.5000
vt 0.9688 1.0000
vt 0.9531 1.0000
vt 0.9531 0.5000
vt 0.2735 0.4888
vt 0.2500 0.4900
vt 0.2265 0.4888
vt 0.2032 0.4854
vt 0.1803 0.4797
vt 0.1582 0.4717
vt 0.1369 0.4617
vt 0.1167 0.4496
vt 0.0977 0.4355
vt 0.0803 0.4197
vt 0.0645 0.4023
vt 0.0504 0.3833
vt 0.0383 0.3631
vt 0.0283 0.3418
vt 0.0203 0.3197
vt 0.0146 0.2968
vt 0.0112 0.2735
vt 0.0100 0.2500
vt 0.0112 0.2265
vt 0.0146 0.2032
vt 0.0203 0.1803
vt 0.0283 0.1582
vt 0.0383 0.1369
vt 0.0504 0.1167
vt 0.0645 0.0977
vt 0.0803 0.0803
vt 0.0977 0.0645
vt 0.1167 0.0504
vt 0.1369 0.0383
vt 0.1582 0.0283
vt 0.1803 0.0203
vt 0.2032 0.0146
vt 0.2265 0.0112
vt 0.2500 0.0100
vt 0.2735 0.0112
vt 0.2968 0.0146
vt 0.3197 0.0203
vt 0.3418 0.0283
vt 0.3631 0.0383
vt 0.3833 0.0504
vt 0.4023 0.0645
vt 0.4197 0.0803
vt 0.4355 0.0977
vt 0.4496 0.1167
vt 0.4617 0.1369
vt 0.4717 0.1582
vt 0.4797 0.1803
vt 0.4854 0.2032
vt 0.4888 0.2265
vt 0.4900 0.2500
vt 0.4888 0.2735
vt 0.4854 0.2968
vt 0.4797 0.3197
vt 0.4717 0.3418
vt 0.4617 0.3631
vt 0.4496 0.3833
vt 0.4355 0.4023
vt 0.4197 0.4197
vt 0.4023 0.4355
vt 0.3833 0.4496
vt 0.3631 0.4617
vt 0.3418 0.4717
vt 0.3197 0.4797
vt 0.2968 0.4854
vt 0.9844 0.5000
vt 0.9844 1.0000
vt 0.9688 1.0000
vt 0.9688 0.5000
vt 1.0000 0.5000
vt 1.0000 1.0000
vt 0.9844 1.0000
vt 0.9844 0.5000
vt 0.7500 0.4900
vt 0.7735 0.4888
vt 0.7968 0.4854
vt 0.8197 0.4797
vt 0.8418 0.4717
vt 0.8631 0.4617
vt 0.8833 0.4496
vt 0.9023 0.4355
vt 0.9197 0.4197
vt 0.9355 0.4023
vt 0.9496 0.3833
vt 0.9617 0.3631
vt 0.9717 0.3418
vt 0.9797 0.3197
vt 0.9854 0.2968
vt 0.9888 0.2735
vt 0.9900 0.2500
vt 0.9888 0.2265
vt 0.9854 0.2032
vt 0.9797 0.1803
vt 0.9717 0.1582
vt 0.9617 0.1369
vt 0.9496 0.1167
vt 0.9355 0.0977
vt 0.9197 0.0803
vt 0.9023 0.0645
vt 0.8833 0.0504
vt 0.8631 0.0383
vt 0.8418 0.0283
vt 0.8197 0.0203
vt 0.7968 0.0146
vt 0.7735 0.0112
vt 0.7500 0.0100
vt 0.7265 0.0112
vt 0.7032 0.0146
vt 0.6803 0.0203
vt 0.6582 0.0283
vt 0.6369 0.0383
vt 0.6167 0.0504
vt 0.5977 0.0645
vt 0.5803 0.0803
vt 0.5645 0.0977
vt 0.5504 0.1167
vt 0.5383 0.1369
vt 0.5283 0.1582
vt 0.5203 0.1803
vt 0.5146 0.2032
vt 0.5112 0.2265
vt 0.5100 0.2500
vt 0.5112 0.2735
vt 0.5146 0.2968
vt 0.5203 0.3197
vt 0.5283 0.3418
vt 0.5383 0.3631
vt 0.5504 0.3833
vt 0.5645 0.4023
vt 0.5803 0.4197
vt 0.5977 0.4355
vt 0.6167 0.4496
vt 0.6369 0.4617
vt 0.6582 0.4717
vt 0.6803 0.4797
vt 0.7032 0.4854
vt 0.7265 0.4888
vn 0.0482 0.1841 -0.9817
vn 0.1442 0.1841 -0.9723
vn 0.2388 0.1841 -0.9535
vn 0.3311 0.1841 -0.9255
vn 0.4202 0.1841 -0.8885
vn 0.5053 0.1841 -0.8431
vn 0.5855 0.1841 -0.7895
vn 0.6601 0.1841 -0.7283
vn 0.7283 0.1841 -0.6601
vn 0.7895 0.1841 -0.5855
vn 0.8431 0.1841 -0.5053
vn 0.8885 0.1841 -0.4202
vn 0.9255 0.1841 -0.3311
vn 0.9535 0.1841 -0.2388
vn 0.9723 0.1841 -0.1442
vn 0.9817 0.1841 -0.0482
vn 0.9817 0.1841 0.0482
vn 0.9723 0.1841 0.1442
vn 0.9535 0.1841 0.2388
vn 0.9255 0.1841 0.3311
vn 0.8885 0.1841 0.4202
vn 0.8431 0.1841 0.5053
vn 0.7895 0.1841 0.5855
vn 0.7283 0.1841 0.6601
vn 0.6601 0.1841 0.7283
vn 0.5855 0.1841 0.7895
vn 0.5053 0.1841 0.8431
vn 0.4202 0.1841 0.8885
vn 0.3311 0.1841 0.9255
vn 0.2388 0.1841 0.9535
vn 0.1442 0.1841 0.9723
vn 0.0482 0.1841 0.9817
vn -0.0482 0.1841 0.9817
vn -0.1442 0.1841 0.9723
vn -0.2388 0.1841 0.9535
vn -0.3311 0.1841 0.9255
vn -0.4203 0.1841 0.8885
vn -0.5053 0.1841 0.8431
vn -0.5855 0.1841 0.7895
vn -0.6601 0.1841 0.7283
vn -0.7283 0.1841 0.6601
vn -0.7895 0.1841 0.5855
vn -0.8431 0.1841 0.5053
vn -0.8885 0.1841 0.4202
vn -0.9255 0.1841 0.3311
vn -0.9535 0.1841 0.2388
vn -0.9723 0.1841 0.1442
vn -0.9817 0.1841 0.0482
vn -0.9817 0.1841 -0.0482
vn -0.9723 0.1841 -0.1442
vn -0.9535 0.1841 -0.2388
vn -0.9255 0.1841 -0.3311
vn -0.8885 0.1841 -0.4202
vn -0.8431 0.1841 -0.5053
vn -0.7895 0.1841 -0.5855
vn -0.7283 0.1841 -0.6601
vn -0.6601 0.1841 -0.7283
vn -0.5855 0.1841 -0.7895
vn -0.5053 0.1841 -0.8431
vn -0.4203 0.1841 -0.8885
vn -0.3311 0.1841 -0.9255
vn -0.2388 0.1841 -0.9535
vn 0.0000 1.0000 0.0000
vn -0.1442 0.1841 -0.9723
vn -0.0482 0.1841 -0.9817
vn 0.0000 -1.0000 -0.0000
usemtl None
s off
f 1/1/1 2/2/1 4/3/1 3/4/1
f 3/5/2 4/6/2 6/7/2 5/8/2
f 5/9/3 6/10/3 8/11/3 7/12/3
f 7/13/4 8/14/4 10/15/4 9/16/4
f 9/17/5 10/18/5 12/19/5 11/20/5
f 11/21/6 12/22/6 14/23/6 13/24/6
f 13/25/7 14/26/7 16/27/7 15/28/7
f 15/29/8 16/30/8 18/31/8 17/32/8
f 17/33/9 18/34/9 20/35/9 19/36/9
f 19/37/10 20/38/10 22/39/10 21/40/10
f 21/41/11 22/42/11 24/43/11 23/44/11
f 23/45/12 24/46/12 26/47/12 25/48/12
f 25/49/13 26/50/13 28/51/13 27/52/13
f 27/53/14 28/54/14 30/55/14 29/56/14
f 29/57/15 30/58/15 32/59/15 31/60/15
f 31/61/16 32/62/16 34/63/16 33/64/16
f 33/65/17 34/66/17 36/67/17 35/68/17
f 35/69/18 36/70/18 38/71/18 37/72/18
f 37/73/19 38/74/19 40/75/19 39/76/19
f 39/77/20 40/78/20 42/79/20 41/80/20
f 41/81/21 42/82/21 44/83/21 43/84/21
f 43/85/22 44/86/22 46/87/22 45/88/22
f 45/89/23 46/90/23 48/91/23 47/92/23
f 47/93/24 48/94/24 50/95/24 49/96/24
f 49/97/25 50/98/25 52/99/25 51/100/25
f 51/101/26 52/102/26 54/103/26 53/104/26
f 53/105/27 54/106/27 56/107/27 55/108/27
f 55/109/28 56/110/28 58/111/28 57/112/28
f 57/113/29 58/114/29 60/115/29 59/116/29
f 59/117/30 60/118/30 62/119/30 61/120/30
f 61/121/31 62/122/31 64/123/31 63/124/31
f 63/125/32 64/126/32 66/127/32 65/128/32
f 65/129/33 66/130/33 68/131/33 67/132/33
f 67/133/34 68/134/34 70/135/34 69/136/34
f 69/137/35 70/138/35 72/139/35 71/140/35
f 71/141/36 72/142/36 74/143/36 73/144/36
f 73/145/37 74/146/37 76/147/37 75/148/37
f 75/149/38 76/150/38 78/151/38 77/152/38
f 77/153/39 78/154/39 80/155/39 79/156/39
f 79/157/40 80/158/40 82/159/40 81/160/40
f 81/161/41 82/162/41 84/163/41 83/164/41
f 83/165/42 84/166/42 86/167/42 85/168/42
f 85/169/43 86/170/43 88/171/43 87/172/43
f 87/173/44 88/174/44 90/175/44 89/176/44
f 89/177/45 90/178/45 92/179/45 91/180/45
f 91/181/46 92/182/46 94/183/46 93/184/46
f 93/185/47 94/186/47 96/187/47 95/188/47
f 95/189/48 96/190/48 98/191/48 97/192/48
f 97/193/49 98/194/49 100/195/49 99/196/49
f 99/197/50 100/198/50 102/199/50 101/200/50
f 101/201/51 102/202/51 104/203/51 103/204/51
f 103/205/52 104/206/52 106/207/52 105/208/52
f 105/209/53 106/210/53 108/211/53 107/212/53
f 107/213/54 108/214/54 110/215/54 109/216/54
f 109/217/55 110/218/55 112/219/55 111/220/55
f 111/221/56 112/222/56 114/223/56 113/224/56
f 113/225/57 114/226/57 116/227/57 115/228/57
f 115/229/58 116/230/58 118/231/58 117/232/58
f 117/233/59 118/234/59 120/235/59 119/236/59
f 119/237/60 120/238/60 122/239/60 121/240/60
f 121/241/61 122/242/61 124/243/61 123/244/61
f 123/245/62 124/246/62 126/247/62 125/248/62
f 4/249/63 2/250/63 128/251/63 126/252/63 124/253/63 122/254/63 120/255/63 118/256/63 116/257/63 114/258/63 112/259/63 110/260/63 108/261/63 106/262/63 104/263/63 102/264/63 100/265/63 98/266/63 96/267/63 94/268/63 92/269/63 90/270/63 88/271/63 86/272/63 84/273/63 82/274/63 80/275/63 78/276/63 76/277/63 74/278/63 72/279/63 70/280/63 68/281/63 66/282/63 64/283/63 62/284/63 60/285/63 58/286/63 56/287/63 54/288/63 52/289/63 50/290/63 48/291/63 46/292/63 44/293/63 42/294/63 40/295/63 38/296/63 36/297/63 34/298/63 32/299/63 30/300/63 28/301/63 26/302/63 24/303/63 22/304/63 20/305/63 18/306/63 16/307/63 14/308/63 12/309/63 10/310/63 8/311/63 6/312/63
f 125/313/64 126/314/64 128/315/64 127/316/64
f 127/317/65 128/318/65 2/319/65 1/320/65
f 1/321/66 3/322/66 5/323/66 7/324/66 9/325/66 11/326/66 13/327/66 15/328/66 17/329/66 19/330/66 21/331/66 23/332/66 25/333/66 27/334/66 29/335/66 31/336/66 33/337/66 35/338/66 37/339/66 39/340/66 41/341/66 43/342/66 45/343/66 47/344/66 49/345/66 51/346/66 53/347/66 55/348/66 57/349/66 59/350/66 61/351/66 63/352/66 65/353/66 67/354/66 69/355/66 71/356/66 73/357/66 75/358/66 77/359/66 79/360/66 81/361/66 83/362/66 85/363/66 87/364/66 89/365/66 91/366/66 93/367/66 95/368/66 97/369/66 99/370/66 101/371/66 103/372/66 105/373/66 107/374/66 109/375/66 111/376/66 113/377/66 115/378/66 117/379/66 119/380/66 121/381/66 123/382/66 125/383/66 127/384/66
